<svg width="32" height="26" viewBox="0 0 32 26" fill="none" xmlns="http://www.w3.org/2000/svg">
<path d="M29.1875 0.8125H2.8125C1.26363 0.8125 0 2.07475 0 3.625V22.375C0 23.92 1.258 25.1875 2.8125 25.1875H29.1875C30.7325 25.1875 32 23.9295 32 22.375V3.625C32 2.08 30.742 0.8125 29.1875 0.8125ZM28.7991 2.6875L16.0596 15.4271L3.20994 2.6875H28.7991ZM1.875 21.9867V4.00431L10.9049 12.9568L1.875 21.9867ZM3.20081 23.3125L12.2364 14.2769L15.4025 17.4158C15.769 17.7791 16.3604 17.7779 16.7254 17.4129L19.8125 14.3258L28.7992 23.3125H3.20081ZM30.125 21.9867L21.1383 13L30.125 4.01325V21.9867Z" fill="#266AA3"/>
</svg>
