<svg width="32" height="32" viewBox="0 0 32 32" fill="none" xmlns="http://www.w3.org/2000/svg">
<path d="M31.1602 24.6861L24.6833 20.3668C23.8613 19.823 22.7595 20.0019 22.1519 20.7779L20.2652 23.2037C20.0228 23.5234 19.582 23.6161 19.2312 23.4213L18.8724 23.2234C17.6827 22.5749 16.2024 21.7676 13.2199 18.7841C10.2374 15.8005 9.42845 14.3191 8.77998 13.1316L8.5832 12.7727C8.38567 12.422 8.47665 11.9794 8.79648 11.735L11.2206 9.84889C11.9963 9.24117 12.1754 8.13971 11.6323 7.31752L7.31295 0.840606C6.75635 0.00335491 5.63964 -0.247983 4.77795 0.270003L2.06954 1.89695C1.21854 2.39725 0.5942 3.2075 0.327427 4.15793C-0.647866 7.71152 0.085837 13.8445 9.12025 22.88C16.3069 30.0661 21.6571 31.9986 25.3344 31.9986C26.1807 32.0022 27.0237 31.8921 27.8407 31.6712C28.7913 31.4048 29.6017 30.7803 30.1017 29.9291L31.7303 27.2223C32.249 26.3604 31.9978 25.243 31.1602 24.6861ZM30.8114 26.6751L29.1866 29.3836C28.8276 29.998 28.2447 30.4497 27.5601 30.6442C24.2796 31.5449 18.5482 30.7988 9.87476 22.1254C1.20136 13.452 0.455408 7.72115 1.35609 4.44007C1.55081 3.75467 2.00312 3.17107 2.61827 2.8115L5.32668 1.18668C5.70057 0.961713 6.18524 1.07076 6.42677 1.43408L8.77311 4.95674L10.7424 7.91043C10.9783 8.26707 10.9008 8.74506 10.5643 9.00896L8.13964 10.8951C7.40175 11.4593 7.19103 12.4802 7.64534 13.2904L7.83787 13.6403C8.5194 14.8902 9.36671 16.4452 12.4601 19.5381C15.5535 22.6309 17.108 23.4783 18.3574 24.1598L18.7077 24.3528C19.5179 24.807 20.5389 24.5964 21.1031 23.8585L22.9892 21.4338C23.2531 21.0975 23.731 21.0201 24.0877 21.2557L30.5641 25.5751C30.9276 25.8164 31.0367 26.3013 30.8114 26.6751Z" fill="#266AA3" stroke="#266AA3" stroke-width="0.5"/>
<path d="M18.1325 5.336C23.1368 5.34156 27.1922 9.39702 27.1978 14.4013C27.1978 14.6959 27.4365 14.9346 27.731 14.9346C28.0255 14.9346 28.2643 14.6959 28.2643 14.4013C28.2581 8.80823 23.7256 4.27566 18.1325 4.26953C17.8379 4.26953 17.5992 4.50825 17.5992 4.80276C17.5992 5.09728 17.8379 5.336 18.1325 5.336Z" fill="#266AA3" stroke="#266AA3" stroke-width="0.5"/>
<path d="M18.1325 8.53522C21.3705 8.53903 23.9945 11.163 23.9983 14.401C23.9983 14.6956 24.237 14.9343 24.5315 14.9343C24.826 14.9343 25.0647 14.6956 25.0647 14.401C25.0603 10.5742 21.9592 7.47312 18.1325 7.46875C17.8379 7.46875 17.5992 7.70746 17.5992 8.00198C17.5992 8.2965 17.8379 8.53522 18.1325 8.53522Z" fill="#266AA3" stroke="#266AA3" stroke-width="0.5"/>
<path d="M18.1325 11.7354C19.6042 11.7372 20.7969 12.9299 20.7987 14.4017C20.7987 14.6962 21.0375 14.9349 21.332 14.9349C21.6264 14.9349 21.8652 14.6962 21.8652 14.4017C21.8628 12.3411 20.193 10.6713 18.1325 10.6689C17.8379 10.6689 17.5992 10.9077 17.5992 11.2022C17.5992 11.4967 17.8379 11.7354 18.1325 11.7354Z" fill="#266AA3" stroke="#266AA3" stroke-width="0.5"/>
</svg>
