<svg width="140" height="140" viewBox="0 0 140 140" fill="none" xmlns="http://www.w3.org/2000/svg">
<path d="M140 70C140 108.66 108.659 140 70 140C31.3396 140 0 108.66 0 70C0 31.3406 31.3396 0 70 0C108.659 0 140 31.3406 140 70Z" fill="#61B3ED"/>
<path d="M112.324 125.76C100.573 134.694 85.9064 140 70.0011 140C54.0958 140 39.4295 134.694 27.6781 125.76C36.4558 121.471 52.1272 118.617 70.0011 118.617C87.8749 118.617 103.549 121.471 112.324 125.76Z" fill="#498DD6"/>
<path d="M119.265 41.0754C109.471 -13.6911 30.5289 -13.6911 20.7353 41.0754C19.8637 45.9513 19.4087 50.9704 19.4087 56.0974C19.4087 90.7545 40.206 120.55 70 133.697C99.794 120.55 120.591 90.7545 120.591 56.0974C120.591 50.9704 120.136 45.9513 119.265 41.0754Z" fill="#FC5F61"/>
<path d="M109.61 50.2571C109.61 70.5994 94.2761 87.3645 74.5352 89.6108C73.0473 89.7827 71.5359 89.8703 70.0021 89.8703C48.1261 89.8703 30.3889 72.1332 30.3889 50.2571C30.3889 28.3821 48.1261 10.6482 70.0021 10.6482C71.5359 10.6482 73.0473 10.7368 74.5352 10.9088C94.2761 13.1551 109.61 29.9159 109.61 50.2571Z" fill="#FCF8F2"/>
<path d="M47.5803 72.1136L44.6964 34.2714L70.0064 21.6516L95.3368 34.9966L92.4529 72.1136" fill="#B3B3B3"/>
<path d="M74.8642 8.07175C73.261 7.88589 71.6267 7.7919 70.0011 7.7919C68.244 7.7919 66.5105 7.89871 64.809 8.10699C60.2972 8.65921 59.0187 2.08389 63.4044 0.888672C65.578 0.295868 67.7901 0 70.0011 0C47.8174 0 25.6326 13.6943 20.7353 41.0776C19.8637 45.9514 19.4098 50.9715 19.4098 56.0974C19.4098 90.7545 40.206 120.549 70.0011 133.697C60.654 127.61 52.6132 117.956 46.6724 105.905C42.7182 97.8831 50.1277 88.8448 58.7506 91.216C62.3352 92.2018 66.1078 92.7284 70.0011 92.7284C71.6267 92.7284 73.261 92.6334 74.8578 92.4486C96.2981 90.0111 112.466 71.8713 112.466 50.257C112.466 28.6458 96.2981 10.5081 74.8642 8.07175ZM74.2062 86.7715C72.8209 86.9318 71.4067 87.014 70.0011 87.014C54.6437 87.014 41.4578 77.5452 35.9666 64.1403C35.9666 64.1403 35.9698 64.1403 35.9666 64.1371C34.2149 59.8518 33.2462 55.166 33.2462 50.257C33.2462 43.4456 35.1089 37.0625 38.3496 31.5884C44.7551 20.7738 56.546 13.5052 70.0011 13.5052C71.4067 13.5052 72.8209 13.5854 74.2126 13.7488C92.7637 15.8572 106.752 31.5543 106.752 50.257C106.753 68.9629 92.7637 84.6599 74.2062 86.7715Z" fill="#E53841"/>
<path d="M86.2813 51.7896C86.1681 51.7896 86.0538 51.7703 85.9405 51.7308C85.4011 51.5428 85.117 50.9532 85.3061 50.4149L86.2845 47.6196C86.4297 47.2052 86.8207 46.9275 87.2597 46.9275H89.633C90.2034 46.9275 90.6659 47.39 90.6659 47.9614C90.6659 48.5318 90.2034 48.9943 89.633 48.9943H87.9924L87.2565 51.0974C87.108 51.5225 86.7085 51.7896 86.2813 51.7896Z" fill="#494966"/>
<path d="M53.7187 51.7896C53.2925 51.7896 52.8931 51.5225 52.7435 51.0974L52.0076 48.9943H50.368C49.7977 48.9943 49.3341 48.5318 49.3341 47.9604C49.3341 47.39 49.7966 46.9275 50.368 46.9275H52.7414C53.1804 46.9275 53.5713 47.2041 53.7166 47.6196L54.695 50.4138C54.883 50.9532 54.5988 51.5428 54.0605 51.7308C53.9473 51.7703 53.8319 51.7896 53.7187 51.7896Z" fill="#494966"/>
<path d="M84.9825 50.7558L75.0095 54.5081L70 56.3901L68.4982 55.8368L54.6725 50.7558L56.3666 43.5738C56.7287 42.0378 58.0927 40.9526 59.6671 40.9387H79.9879C81.5623 40.9526 82.9242 42.0399 83.2863 43.5738L84.9825 50.7558Z" fill="#E3FAFF"/>
<path d="M82.011 50.7558L72.038 54.5081L68.4972 55.8368L54.6725 50.7558L56.3666 43.5738C56.7287 42.0378 58.0927 40.9526 59.666 40.9387H77.0175C78.5909 40.9526 79.9538 42.0399 80.3148 43.5738L82.011 50.7558Z" fill="#C5F3FF"/>
<path d="M54.6736 51.7033C54.602 51.7033 54.5283 51.6958 54.4557 51.6787C53.9462 51.558 53.6311 51.0474 53.7518 50.539L55.4459 43.3559C55.9084 41.3906 57.6419 40.0085 59.6606 39.9924H79.989C82.0131 40.0106 83.7456 41.3927 84.2081 43.3559L85.9043 50.539C86.0249 51.0474 85.7099 51.558 85.2004 51.6776C84.6919 51.7983 84.1814 51.4832 84.0618 50.9737L82.3645 43.7907C82.1028 42.6798 81.1223 41.8969 79.9805 41.8873H59.6681C58.5327 41.8958 57.5522 42.6787 57.2894 43.7907L55.5954 50.9737C55.4918 51.4095 55.103 51.7033 54.6736 51.7033Z" fill="#5986B8"/>
<path d="M86.2802 50.7556H53.7177C52.1529 50.7556 50.8839 52.0245 50.8839 53.5893V64.8291H89.115V53.5893C89.115 52.0245 87.8461 50.7556 86.2802 50.7556Z" fill="#38538A"/>
<path d="M86.2802 50.7556H55.9575C54.3916 50.7556 53.1227 52.0245 53.1227 53.5893V64.8291H89.1161V53.5893C89.115 52.0245 87.8461 50.7556 86.2802 50.7556Z" fill="#5986B8"/>
<path d="M57.4283 54.2004C59.0443 54.2004 60.356 55.511 60.356 57.1281C60.356 58.7453 59.0443 60.0558 57.4283 60.0558C55.8112 60.0558 54.5006 58.7453 54.5006 57.1281C54.5006 55.511 55.8112 54.2004 57.4283 54.2004Z" fill="#FDD25D"/>
<path d="M82.5717 54.2004C84.1878 54.2004 85.4994 55.511 85.4994 57.1281C85.4994 58.7453 84.1878 60.0558 82.5717 60.0558C80.9546 60.0558 79.644 58.7453 79.644 57.1281C79.644 55.511 80.9546 54.2004 82.5717 54.2004Z" fill="#FDD25D"/>
<path d="M57.4283 60.9168C55.3391 60.9168 53.6397 59.2174 53.6397 57.1282C53.6397 55.039 55.3391 53.3396 57.4283 53.3396C59.5175 53.3396 61.2169 55.039 61.2169 57.1282C61.2169 59.2174 59.5175 60.9168 57.4283 60.9168ZM57.4283 55.0614C56.2886 55.0614 55.3615 55.9885 55.3615 57.1282C55.3615 58.2679 56.2886 59.195 57.4283 59.195C58.568 59.195 59.4951 58.2679 59.4951 57.1282C59.4951 55.9885 58.568 55.0614 57.4283 55.0614Z" fill="#38538A"/>
<path d="M82.5717 60.9168C80.4825 60.9168 78.7831 59.2174 78.7831 57.1282C78.7831 55.039 80.4825 53.3396 82.5717 53.3396C84.661 53.3396 86.3603 55.039 86.3603 57.1282C86.3603 59.2174 84.661 60.9168 82.5717 60.9168ZM82.5717 55.0614C81.432 55.0614 80.5049 55.9885 80.5049 57.1282C80.5049 58.2679 81.432 59.195 82.5717 59.195C83.7114 59.195 84.6385 58.2679 84.6385 57.1282C84.6385 55.9885 83.7114 55.0614 82.5717 55.0614Z" fill="#38538A"/>
<path d="M75.7668 55.1853H64.2343C63.3286 55.1853 62.5948 55.9191 62.5948 56.8249V63.4141H77.4052V56.8249C77.4052 55.9191 76.6714 55.1853 75.7668 55.1853Z" fill="#38538A"/>
<path d="M57.9495 72.1139H53.8522C53.0063 72.1139 52.3216 71.4292 52.3216 70.5843V66.0801H59.4801V70.5843C59.4801 71.4292 58.7944 72.1139 57.9495 72.1139Z" fill="#494966"/>
<path d="M86.1478 72.1139H82.0505C81.2045 72.1139 80.5199 71.4292 80.5199 70.5843V66.0801H87.6784V70.5843C87.6784 71.4292 86.9937 72.1139 86.1478 72.1139Z" fill="#494966"/>
<path d="M54.256 69.2866V70.5843C54.256 71.4292 54.9406 72.1139 55.7866 72.1139H53.8522C53.0074 72.1139 52.3216 71.4292 52.3216 70.5843V66.0801H59.4801V69.2866H54.256Z" fill="#343B5B"/>
<path d="M82.4542 69.2866V70.5843C82.4542 71.4292 83.1389 72.1139 83.9848 72.1139H82.0505C81.2056 72.1139 80.5199 71.4292 80.5199 70.5843V66.0801H87.6784V69.2866H82.4542Z" fill="#343B5B"/>
<path d="M91.3538 64.8697V66.0906C91.3538 66.8949 90.7033 67.5464 89.899 67.5464H50.1021C49.2978 67.5464 48.6452 66.8949 48.6452 66.0906V64.8697C48.6452 64.0655 49.2978 63.4128 50.1021 63.4128H89.899C90.7033 63.4128 91.3538 64.0655 91.3538 64.8697Z" fill="#CCCCCC"/>
<path d="M91.3538 64.8697V66.0906C91.3538 66.8949 90.7033 67.5464 89.899 67.5464H56.5599C55.7556 67.5464 55.103 66.8949 55.103 66.0906V64.8697C55.103 64.0655 55.7556 63.4128 56.5599 63.4128H89.899C90.7033 63.4128 91.3538 64.0655 91.3538 64.8697Z" fill="#E8E3DD"/>
<path d="M101.891 34.0855L70.0064 21.6516L38.1082 33.2129L38.8239 36.3991L44.6964 34.2714V72.1136H47.5803V33.2257L69.9786 25.107L92.4529 33.8719V72.1136H95.3368V34.9966L101.127 37.2546L101.891 34.0855Z" fill="#494966"/>
</svg>
