<svg width="30" height="31" viewBox="0 0 30 31" fill="none" xmlns="http://www.w3.org/2000/svg">
<path fill-rule="evenodd" clip-rule="evenodd" d="M25.6117 5.34412C22.805 2.53418 19.0724 0.986023 15.0959 0.984375C6.90195 0.984375 0.233246 7.65289 0.22995 15.8491C0.228851 18.4691 0.9133 21.0267 2.21426 23.2811L0.105255 30.9844L7.98593 28.9171C10.1574 30.1016 12.602 30.7258 15.0899 30.7266H15.0961C23.2892 30.7266 29.9586 24.0575 29.9617 15.861C29.9633 11.8887 28.4185 8.15387 25.6117 5.34412ZM15.0959 28.216H15.0908C12.8737 28.2151 10.6994 27.6193 8.80203 26.4937L8.35104 26.2258L3.67453 27.4526L4.92276 22.8931L4.62888 22.4257C3.392 20.4584 2.73886 18.1846 2.73996 15.85C2.74252 9.03754 8.28549 3.49512 15.1009 3.49512C18.4012 3.49622 21.5035 4.78308 23.8363 7.11859C26.169 9.4541 27.453 12.5585 27.4519 15.86C27.4489 22.673 21.9063 28.216 15.0959 28.216ZM21.8734 18.962C21.502 18.776 19.6757 17.8777 19.3352 17.7535C18.995 17.6296 18.747 17.5679 18.4997 17.9396C18.2519 18.3113 17.5402 19.1481 17.3234 19.3958C17.1066 19.6437 16.8902 19.6749 16.5186 19.4888C16.1471 19.303 14.9503 18.9106 13.5315 17.6451C12.4273 16.6602 11.6819 15.4438 11.4651 15.0721C11.2487 14.7001 11.4633 14.5184 11.6281 14.3141C12.0302 13.8148 12.4328 13.2913 12.5566 13.0435C12.6806 12.7956 12.6185 12.5786 12.5255 12.3928C12.4328 12.2069 11.69 10.3786 11.3805 9.63464C11.0788 8.91064 10.7728 9.00842 10.5446 8.99707C10.3282 8.98627 10.0805 8.98407 9.83273 8.98407C9.58517 8.98407 9.18271 9.0769 8.84213 9.44897C8.50174 9.82086 7.54227 10.7194 7.54227 12.5477C7.54227 14.376 8.87326 16.1422 9.05893 16.3901C9.2446 16.6381 11.6783 20.3899 15.4043 21.9987C16.2905 22.3817 16.9823 22.61 17.5219 22.7812C18.4118 23.064 19.2213 23.024 19.8614 22.9285C20.5752 22.8217 22.0589 22.0298 22.3687 21.1622C22.6781 20.2945 22.6781 19.5509 22.5851 19.3958C22.4925 19.2409 22.2447 19.1481 21.8734 18.962Z" fill="#266AA3"/>
</svg>
